<?xml version="1.0" standalone="no"?>
<!DOCTYPE svg PUBLIC "-//W3C//DTD SVG 20010904//EN"
 "http://www.w3.org/TR/2001/REC-SVG-20010904/DTD/svg10.dtd">
<svg version="1.0" xmlns="http://www.w3.org/2000/svg"
 width="626.000000pt" height="626.000000pt" viewBox="0 0 626.000000 626.000000"
 preserveAspectRatio="xMidYMid meet">

<g transform="translate(0.000000,626.000000) scale(0.100000,-0.100000)"
fill="#000000" stroke="none">
<path d="M2750 4710 c-225 -35 -412 -194 -482 -413 l-22 -67 -84 -41 c-152
-73 -274 -223 -316 -385 -23 -90 -23 -628 0 -718 53 -205 232 -383 435 -431
54 -12 177 -15 769 -15 388 -1 725 -5 750 -9 34 -7 53 -19 85 -54 22 -24 65
-72 95 -106 46 -51 60 -61 88 -61 22 0 41 8 57 25 l25 24 0 384 0 384 -23 21
-23 22 -625 0 c-343 1 -654 5 -691 9 -176 23 -320 149 -363 319 -23 91 -17
582 8 659 26 77 97 167 169 214 111 71 94 70 764 67 l599 -3 67 -32 c117 -55
190 -139 229 -264 17 -55 19 -96 19 -426 l0 -365 29 -29 c16 -16 39 -29 51
-29 29 0 76 26 84 45 3 9 6 186 6 394 0 415 -2 437 -63 561 -43 89 -168 215
-257 259 -136 66 -117 64 -750 67 -316 1 -600 -2 -630 -6z m-510 -882 c0 -143
5 -221 15 -265 46 -197 205 -368 405 -436 64 -21 76 -22 693 -25 l627 -3 0
-180 0 -180 -42 25 c-24 13 -70 29 -102 35 -39 7 -304 11 -760 11 -436 0 -718
4 -745 11 -151 34 -277 158 -317 309 -17 65 -20 548 -3 620 13 55 50 131 88
177 29 35 117 103 133 103 4 0 8 -91 8 -202z"/>
<path d="M2724 3994 c-57 -28 -72 -106 -30 -149 32 -32 69 -40 107 -25 39 16
59 46 59 88 0 46 -16 71 -55 88 -42 17 -43 17 -81 -2z"/>
<path d="M3303 3995 c-38 -16 -53 -42 -53 -88 0 -72 68 -113 133 -82 61 29 75
96 30 144 -34 36 -68 44 -110 26z"/>
<path d="M3882 3995 c-37 -16 -66 -71 -56 -109 17 -70 110 -95 161 -43 22 21
27 36 27 68 -2 71 -66 112 -132 84z"/>
<path d="M1570 2155 c0 -35 0 -35 45 -35 45 0 45 0 45 35 0 35 0 35 -45 35
-45 0 -45 0 -45 -35z"/>
<path d="M890 2010 l0 -170 103 0 c87 0 108 4 141 23 51 29 76 77 76 147 0 70
-25 118 -76 147 -33 19 -54 23 -141 23 l-103 0 0 -170z m153 100 c10 0 29 -11
42 -25 36 -35 36 -115 0 -150 -13 -14 -32 -25 -42 -25 -10 0 -28 -3 -40 -6
-23 -6 -23 -6 -23 106 0 112 0 112 23 106 12 -3 30 -6 40 -6z"/>
<path d="M2990 2010 l0 -170 45 0 45 0 0 59 0 59 71 4 c63 3 74 7 95 31 18 21
24 40 24 73 0 92 -35 114 -180 114 l-100 0 0 -170z m172 94 c5 -3 8 -19 8 -35
0 -22 -6 -32 -26 -39 -54 -21 -64 -15 -64 41 l0 51 37 -7 c21 -4 41 -9 45 -11z"/>
<path d="M4860 2125 c0 -28 -4 -35 -20 -35 -16 0 -20 -7 -20 -30 0 -23 5 -30
19 -30 17 0 19 -9 23 -81 4 -99 14 -109 105 -109 63 0 63 0 63 29 0 25 -4 29
-40 35 l-40 6 0 60 0 60 40 0 c38 0 40 2 40 30 0 28 -2 30 -40 30 -39 0 -40 1
-40 35 0 35 0 35 -45 35 -45 0 -45 0 -45 -35z"/>
<path d="M1284 2066 c-31 -31 -34 -39 -34 -95 0 -53 4 -65 29 -93 25 -29 35
-32 94 -36 37 -2 82 -1 102 2 32 6 35 10 35 43 0 32 -2 35 -22 28 -75 -25
-148 -14 -148 21 0 11 20 14 90 14 l90 0 0 41 c0 33 -6 47 -34 75 -32 32 -38
34 -101 34 -63 0 -69 -2 -101 -34z"/>
<path d="M2040 2067 l0 -33 72 0 c48 1 72 -3 75 -11 3 -10 -12 -13 -55 -13
-81 0 -112 -24 -112 -86 0 -60 25 -84 86 -84 25 0 54 5 65 10 13 7 19 7 19 0
0 -5 21 -10 46 -10 l46 0 -4 106 c-3 102 -4 107 -31 130 -25 21 -37 24 -118
24 l-89 0 0 -33z m150 -118 c0 -27 -22 -49 -50 -49 -23 0 -30 4 -30 20 0 12
10 24 23 30 31 12 57 12 57 -1z"/>
<path d="M2364 2066 c-31 -31 -34 -39 -34 -95 0 -53 4 -65 29 -93 25 -29 35
-32 94 -36 37 -2 82 -1 102 2 32 6 35 10 35 43 0 32 -2 35 -22 28 -75 -25
-148 -14 -148 21 0 11 20 14 90 14 l90 0 0 41 c0 33 -6 47 -34 75 -32 32 -38
34 -101 34 -63 0 -69 -2 -101 -34z m136 -30 c0 -2 3 -11 6 -20 5 -13 -2 -16
-40 -16 -47 0 -55 7 -34 28 11 11 68 18 68 8z"/>
<path d="M3344 2066 c-31 -31 -34 -39 -34 -95 0 -53 4 -65 29 -93 25 -29 35
-32 94 -36 37 -2 82 -1 102 2 32 6 35 10 35 43 0 32 -2 35 -22 28 -75 -25
-148 -14 -148 21 0 11 20 14 90 14 l90 0 0 41 c0 33 -6 47 -34 75 -32 32 -38
34 -101 34 -63 0 -69 -2 -101 -34z m136 -30 c0 -2 3 -11 6 -20 5 -13 -2 -16
-40 -16 -47 0 -55 7 -34 28 11 11 68 18 68 8z"/>
<path d="M3737 2083 c-11 -11 -17 -13 -17 -5 0 8 -16 12 -45 12 l-45 0 0 -125
0 -125 44 0 43 0 5 79 c3 44 10 87 18 95 7 10 28 16 51 16 38 0 39 1 39 35 0
34 -1 35 -38 35 -22 0 -45 -7 -55 -17z"/>
<path d="M3897 2089 c-64 -37 -62 -204 2 -239 27 -14 104 -13 119 2 9 9 12 7
12 -9 0 -35 -25 -46 -90 -40 l-60 5 0 -35 0 -35 90 4 c86 3 91 4 122 35 l33
33 3 141 4 141 -56 -3 c-30 -1 -59 0 -63 4 -10 11 -96 8 -116 -4z m121 -71
c16 -16 16 -80 0 -96 -31 -31 -78 -3 -78 48 0 51 47 79 78 48z"/>
<path d="M4636 2092 c-3 -5 -30 -7 -61 -4 l-55 4 0 -126 0 -126 45 0 45 0 0
68 c0 77 16 116 48 120 30 4 42 -30 42 -119 l0 -69 45 0 45 0 0 83 c0 96 -14
153 -40 167 -23 12 -107 13 -114 2z"/>
<path d="M5080 2067 l0 -33 72 0 c48 1 72 -3 75 -11 3 -10 -12 -13 -55 -13
-81 0 -112 -24 -112 -86 0 -60 25 -84 86 -84 25 0 54 5 65 10 13 7 19 7 19 0
0 -5 21 -10 46 -10 l46 0 -4 106 c-3 102 -4 107 -31 130 -25 21 -37 24 -118
24 l-89 0 0 -33z m150 -118 c0 -27 -22 -49 -50 -49 -23 0 -30 4 -30 20 0 12
10 24 23 30 31 12 57 12 57 -1z"/>
<path d="M5487 2083 c-11 -11 -17 -13 -17 -5 0 8 -16 12 -45 12 l-45 0 0 -125
0 -125 44 0 43 0 5 79 c3 44 10 87 18 95 7 10 28 16 51 16 38 0 39 1 39 35 0
34 -1 35 -38 35 -22 0 -45 -7 -55 -17z"/>
<path d="M1570 1965 l0 -125 45 0 45 0 0 125 0 125 -45 0 -45 0 0 -125z"/>
<path d="M1710 2085 c0 -3 18 -30 41 -60 26 -34 38 -59 33 -67 -4 -7 -25 -37
-46 -65 l-39 -53 50 0 c44 0 52 4 71 30 12 17 24 30 28 30 4 0 16 -14 27 -30
18 -26 26 -30 68 -30 26 0 47 3 47 6 0 3 -20 32 -45 64 l-44 58 44 58 44 59
-47 3 c-42 3 -49 0 -72 -27 l-25 -31 -20 30 c-18 26 -26 30 -67 30 -27 0 -48
-2 -48 -5z"/>
<path d="M2652 1984 c3 -97 5 -107 27 -125 26 -21 90 -26 122 -9 13 7 19 7 19
0 0 -5 20 -10 45 -10 l45 0 0 125 0 125 -45 0 -45 0 0 -78 c0 -83 -9 -102 -46
-102 -29 0 -34 17 -34 106 l0 74 -46 0 -46 0 4 -106z"/>
<path d="M4192 1984 c3 -97 5 -107 27 -125 26 -21 90 -26 122 -9 13 7 19 7 19
0 0 -5 20 -10 45 -10 l45 0 0 125 0 125 -45 0 -45 0 0 -78 c0 -83 -9 -102 -46
-102 -29 0 -34 17 -34 106 l0 74 -46 0 -46 0 4 -106z"/>
</g>
</svg>
